<svg id="Capa_1" data-name="Capa 1" xmlns="http://www.w3.org/2000/svg" viewBox="0 0 251.76 251.76"><defs><style>.cls-1{fill:#1c1c19;}</style></defs><title>logo-crudo</title><path class="cls-1" d="M90.6,160.7a3.76,3.76,0,0,1-2.68,1.11,4.66,4.66,0,0,1-2.17-.52,5.91,5.91,0,0,1-1.79-1.4,6.93,6.93,0,0,1-1.22-2.06,6.86,6.86,0,0,1-.45-2.48,6.45,6.45,0,0,1,.46-2.46,6,6,0,0,1,1.26-2,5.9,5.9,0,0,1,1.9-1.32,5.53,5.53,0,0,1,2.33-.49,6,6,0,0,1,1.49.18,5.18,5.18,0,0,1,1.32.55,5,5,0,0,1,1.08.87,4.38,4.38,0,0,1,.79,1.14l-2.51,2a2.74,2.74,0,0,0-.94-1.2,2.3,2.3,0,0,0-1.35-.45,2,2,0,0,0-1,.25,2.49,2.49,0,0,0-.76.69,3.41,3.41,0,0,0-.5,1,5.08,5.08,0,0,0,0,2.68,3.2,3.2,0,0,0,.51,1,2.3,2.3,0,0,0,.79.67,2.12,2.12,0,0,0,1,.24,2.45,2.45,0,0,0,1.2-.32,3.85,3.85,0,0,0,1.09-.92H88.33v-2.47h5.06v6.67H90.6Z"/><path class="cls-1" d="M101,161.83a5.2,5.2,0,0,1-2.4-.55,5.93,5.93,0,0,1-1.85-1.44,6.48,6.48,0,0,1-1.19-2,6.57,6.57,0,0,1-.43-2.36,6.7,6.7,0,0,1,.44-2.39,6.62,6.62,0,0,1,1.24-2,6.17,6.17,0,0,1,1.88-1.39,5.39,5.39,0,0,1,2.38-.52,5.29,5.29,0,0,1,2.4.54,6,6,0,0,1,1.85,1.45,6.56,6.56,0,0,1,1.19,2,7,7,0,0,1,.41,2.35,6.39,6.39,0,0,1-.44,2.37,6.57,6.57,0,0,1-1.22,2,5.93,5.93,0,0,1-1.87,1.4A5.44,5.44,0,0,1,101,161.83Zm-2.44-6.36a4.93,4.93,0,0,0,.15,1.23,3.13,3.13,0,0,0,.46,1.05,2.3,2.3,0,0,0,.78.74,2,2,0,0,0,1.09.29,2,2,0,0,0,1.1-.3,2.24,2.24,0,0,0,.77-.76,3.75,3.75,0,0,0,.44-1.06,4.92,4.92,0,0,0,0-2.45,3.39,3.39,0,0,0-.46-1,2.31,2.31,0,0,0-.77-.72,2,2,0,0,0-1.09-.28,2.14,2.14,0,0,0-1.1.28,2.37,2.37,0,0,0-.76.75,3.72,3.72,0,0,0-.45,1.06A5,5,0,0,0,98.51,155.47Z"/><path class="cls-1" d="M114.37,158.78a1.78,1.78,0,0,0,1-.27,2.07,2.07,0,0,0,.68-.7,3.34,3.34,0,0,0,.38-1,5.79,5.79,0,0,0,.12-1.19v-6.44h3.38v6.44a8.79,8.79,0,0,1-.33,2.45,5.43,5.43,0,0,1-1,2,4.74,4.74,0,0,1-1.74,1.3,6.6,6.6,0,0,1-5,0,4.93,4.93,0,0,1-1.72-1.35,5.63,5.63,0,0,1-1-2,8.77,8.77,0,0,1-.31-2.38v-6.44h3.38v6.44a5.79,5.79,0,0,0,.12,1.19,3,3,0,0,0,.38,1,2,2,0,0,0,.66.69A1.88,1.88,0,0,0,114.37,158.78Z"/><path class="cls-1" d="M122.54,161.72V149.19h5.65a3.58,3.58,0,0,1,1.66.38,4.28,4.28,0,0,1,1.31,1A4.68,4.68,0,0,1,132,152a4.23,4.23,0,0,1,.31,1.58,4.55,4.55,0,0,1-.46,2,4.27,4.27,0,0,1-1.3,1.55l2.77,4.6h-3.81l-2.34-3.85h-1.26v3.85Zm3.38-6.85h2.13a.74.74,0,0,0,.58-.35,1.6,1.6,0,0,0,.27-1,1.45,1.45,0,0,0-.32-1,.84.84,0,0,0-.62-.34h-2Z"/><path class="cls-1" d="M144.41,161.72v-6.6l-2.06,4.64h-1.8l-2.06-4.64v6.6h-3.38V149.19h3.69l2.65,5.89,2.66-5.89h3.67v12.53Z"/><path class="cls-1" d="M159.35,158.72v3h-8.76V149.19h8.6v3H154V154h4.47v2.78H154v2Z"/><path class="cls-1" d="M171.19,152.19h-3.53v9.53h-3.38v-9.53h-3.55v-3h10.46Z"/><rect class="cls-1" x="173.99" y="154.82" width="13.01" height="1.35"/><rect class="cls-1" x="65.48" y="154.82" width="13.01" height="1.35"/><path class="cls-1" d="M32.66,91.33a.7.7,0,0,1,.44.14.56.56,0,0,0,.36.14,1.1,1.1,0,0,0,.44-.11,1.18,1.18,0,0,1,.5-.1,3.79,3.79,0,0,1,1,.2c.42.14.85.3,1.3.48l1.61.61a1,1,0,0,0,.66.24L40,93a6,6,0,0,1,1,.13,1.14,1.14,0,0,1,.74.51A6,6,0,0,1,43,95.12a4.22,4.22,0,0,1,.43,2.1,4.57,4.57,0,0,1-.13,1.09,4,4,0,0,0-.14,1,2.54,2.54,0,0,0,.13.81,3.25,3.25,0,0,1,.13,1.08,2,2,0,0,1-.06.55,1.57,1.57,0,0,0-.07.54,1.12,1.12,0,0,0,.07.4,1.75,1.75,0,0,1,.06.48,3.63,3.63,0,0,1-.07.71,4.53,4.53,0,0,0-.06.71,1.34,1.34,0,0,0,.26.88.35.35,0,0,1,0,.14.22.22,0,0,0,0,.13.38.38,0,0,0,.07.17.48.48,0,0,1,.07.24.68.68,0,0,1-.07.27.47.47,0,0,0-.07.2c0,.09,0,.15.07.17a.18.18,0,0,1,.07.17v.2a.28.28,0,0,0,.06.2l-.13.08v.06a3.91,3.91,0,0,1-.81,1.08,1.5,1.5,0,0,1-.87.53,1,1,0,0,1-.76-.25,3.15,3.15,0,0,1-.51-.53,1,1,0,0,0-.6-.46,1.27,1.27,0,0,1-.66-.46,3.43,3.43,0,0,1-.71-.59,1.25,1.25,0,0,0-.83-.39,3.41,3.41,0,0,1-1-.56,3.61,3.61,0,0,0-1.07-.55l-1.27-.35a5,5,0,0,0-1-.21,4.26,4.26,0,0,0-.64.05l-.64,0a1.39,1.39,0,0,1-.86-.19,8.47,8.47,0,0,1-1.71.18,2.83,2.83,0,0,0-1.7.6,2.51,2.51,0,0,1-1.54.39,8.17,8.17,0,0,0-2.18,1.57,13.83,13.83,0,0,0-1.67,2.06,22.22,22.22,0,0,0-1.21,2.09c-.33.67-.56,1.2-.7,1.58v.21a1.93,1.93,0,0,1-.1.65,1.83,1.83,0,0,0-.1.64.29.29,0,0,0,0,.17s0,.08,0,.18-.27.4-.41.62a1.28,1.28,0,0,0-.2.68,1.08,1.08,0,0,0,.14.41,2.72,2.72,0,0,1-.17.58,1.32,1.32,0,0,0-.1.57,3.21,3.21,0,0,0,.06.6,2.87,2.87,0,0,1,.07.67,2.83,2.83,0,0,1-.07.78,2.84,2.84,0,0,1,.34,1.53v.71a3.08,3.08,0,0,0,.23,1.36,6.69,6.69,0,0,0,.53,1l.54.88a2.18,2.18,0,0,1,.23,1.05,1.29,1.29,0,0,0,.8.92,1.22,1.22,0,0,1,.73,1,1,1,0,0,0,.6.73,3.13,3.13,0,0,1,.87.49c.49.34,1,.65,1.47.94a3.34,3.34,0,0,0,1.73.43,2.59,2.59,0,0,0,.91.21,2,2,0,0,1,.83.22,2,2,0,0,1,.47.14,1,1,0,0,0,.47.07,1.6,1.6,0,0,0,.43-.11,2,2,0,0,1,.5-.1,3.32,3.32,0,0,1,.7,0,4.13,4.13,0,0,0,.7,0,5,5,0,0,0,1.87-.51,12.58,12.58,0,0,0,1.84-1.05c.61-.41,1.21-.83,1.81-1.28a17.65,17.65,0,0,1,1.84-1.21c.4-.39.71-.7.94-.94a1.83,1.83,0,0,1,1.27-.41.65.65,0,0,0,.4.55.62.62,0,0,1,.33.63,7.41,7.41,0,0,1,.47,1.22,5,5,0,0,1,.19,1.45,2.86,2.86,0,0,1-.16,1,3.09,3.09,0,0,0-.17,1.13c0,.31,0,.59,0,.81s0,.45,0,.67a8.79,8.79,0,0,1-.07,1.13c0,.39-.06.76-.07,1.12a2.93,2.93,0,0,0,.27,1.34c-.09,0-.17.21-.23.49a3,3,0,0,0-.11.55,2.59,2.59,0,0,0,.1.67,2,2,0,0,1,.1.6,2.27,2.27,0,0,1-.9,1.63,13.18,13.18,0,0,0-1.37,1.41c-.45.17-.89.32-1.31.45a5.14,5.14,0,0,0-1.24.58,4.06,4.06,0,0,0-1.6.46,4.23,4.23,0,0,1-1.6.45c-.05.1-.18.17-.4.21l-.77.14c-.29.05-.58.11-.87.19a2.17,2.17,0,0,0-.77.35c-.89.08-1.77.16-2.64.22s-1.74.1-2.63.1a1,1,0,0,0-.51-.09c-.28,0-.61,0-1,0s-.73,0-1.1,0a2.68,2.68,0,0,1-.84-.12,1.41,1.41,0,0,0-.43-.17l-.87-.22c-.33-.08-.67-.15-1-.21s-.59-.11-.77-.13a13.06,13.06,0,0,1-2.46-.73,1.42,1.42,0,0,1-1.27-.54,2,2,0,0,0-1.47-.66,1.55,1.55,0,0,0-1.07-1.21,2.93,2.93,0,0,1-1.33-.83.64.64,0,0,1-.5-.42.67.67,0,0,0-.43-.42c-.31-.16-.57-.3-.77-.42s-.3-.45-.3-1c-.62-.61-1.22-1.23-1.8-1.88a3.11,3.11,0,0,1-.93-1.61,1.41,1.41,0,0,1-.6-1.1,2.12,2.12,0,0,0-.47-1.19,16.38,16.38,0,0,0-.87-2.06A7.34,7.34,0,0,1,6,128a2.49,2.49,0,0,1-.37-1.57,2.25,2.25,0,0,0-.43-1.57,5.83,5.83,0,0,1,0-.59,5.63,5.63,0,0,0,0-.58,1.85,1.85,0,0,0-.2-.94,1.89,1.89,0,0,1-.2-.93,5.36,5.36,0,0,1,.1-1,4.71,4.71,0,0,0,.1-1,2.57,2.57,0,0,1-.2-1.08,5.7,5.7,0,0,1,.1-1.06,2.29,2.29,0,0,1,.37-.86,6.25,6.25,0,0,0-.17-.72,3,3,0,0,1-.1-.72,1.84,1.84,0,0,1,.24-.93,2,2,0,0,0,.23-1v-.3a.62.62,0,0,0,.23-.44,3.9,3.9,0,0,0,0-.59s-.07-.07-.07-.21.18-.25.27-.74a4.78,4.78,0,0,1,.27-1c.08,0,.13-.08.13-.23a7.38,7.38,0,0,1,.67-2.17q.46-.92.87-2a2.67,2.67,0,0,1,.67-1.51,3,3,0,0,0,.73-1.35.81.81,0,0,1,.23-.59,2.54,2.54,0,0,1,.51-.37,2.14,2.14,0,0,0,.77-1.13,1.64,1.64,0,0,1,1.23-1.07,4.31,4.31,0,0,1,.64-1.05,3.75,3.75,0,0,1,.6-.55c.2-.15.38-.27.54-.37a1.37,1.37,0,0,0,.43-.5,1,1,0,0,1,.8-.84,1,1,0,0,0,.81-.83,11.05,11.05,0,0,1,1.94-1A13.55,13.55,0,0,0,20,93.54a3.41,3.41,0,0,0,1-.43,2.43,2.43,0,0,1,1-.36,12.66,12.66,0,0,1,2.94-1,15.07,15.07,0,0,1,2.88-.38h.33a.62.62,0,0,1,.47-.14h.47c.49,0,.95,0,1.37.06a10.54,10.54,0,0,0,1.24.07A5,5,0,0,0,32.66,91.33ZM12.25,122.17a.23.23,0,0,0-.2-.06.11.11,0,0,0-.1,0,.28.28,0,0,1-.17,0h-.07v.07c0,.1.06.14.17.14l.3,0a.16.16,0,0,1,0-.11A.21.21,0,0,0,12.25,122.17Zm.46,4.84-.27-.12a.63.63,0,0,1-.2-.13c-.17,0-.26.07-.26.17l.13.35a.26.26,0,0,0,.13-.09c.09.09.13.14.1.14h.17c.13,0,.2-.07.2-.16Zm2.4-1.75c0-.23-.13-.34-.4-.32a1.65,1.65,0,0,0-.33,0,1.16,1.16,0,0,1-.33.06h-.14l-.13.16a1.07,1.07,0,0,0,.07.35c0,.14.09.21.13.2a.19.19,0,0,0,.13-.08c.05.1.16.13.34.12a1,1,0,0,0,.43-.14c.16-.08.23-.17.23-.26Zm-.33-5.19c0-.14-.17-.2-.53-.18a.25.25,0,0,1-.1.22.19.19,0,0,0-.1.15q0,.15.33.12C14.65,120.37,14.78,120.26,14.78,120.07Zm-.19-10.78c0-.09-.07-.14-.2-.13s0,.21.07.21.06,0,.06,0S14.55,109.29,14.59,109.29Zm.19,22c0-.1,0-.14-.14-.13l-.26,0v.07c0,.19.11.28.33.26A.34.34,0,0,0,14.78,131.29Zm2.07,1a1.44,1.44,0,0,1-.37-.33.55.55,0,0,0-.5-.17l-.2,0c0,.24.07.38.2.44a1.36,1.36,0,0,1,.33.22h.07l.33,0A.14.14,0,0,0,16.85,132.26ZM17,126.7v-.14c0-.1-.06-.14-.2-.13-.44,0-.66.24-.67.62l.14.13A1.21,1.21,0,0,0,17,126.7Zm.34,2.82-.21-.2a.35.35,0,0,0-.26,0c-.18,0-.27.09-.27.23s0,.21.13.21h.14l.26,0Q17.32,129.66,17.32,129.52Zm.72,7.82a1,1,0,0,0-.86-.28.69.69,0,0,0-.47.19c.09.23.21.34.37.32s.23,0,.23.12A1.08,1.08,0,0,0,18,137.34Zm-.31-30.23c0-.09-.09-.14-.26-.13h-.34c-.13,0-.2,0-.2.08s0,.1.13.17.14.13.14.17h.33c.14,0,.2-.05.2-.14ZM19.19,128l-.14-.14A.07.07,0,0,0,19,128c0,.05,0,.07.06.07s.05.06.14.06Zm1.13,3.87c-.05,0-.07,0-.07-.1s0-.1-.13-.1h-.07a.55.55,0,0,1-.23,0,.63.63,0,0,0-.24,0,.53.53,0,0,0-.53.61c0,.14.09.2.27.19a1.22,1.22,0,0,0,.46-.11.29.29,0,0,0,.2-.09l.2,0c.09-.1.14-.17.14-.22Zm1.33,4.47c-.09-.22-.22-.33-.4-.31a1.68,1.68,0,0,1-.6-.09c-.23.07-.34.19-.34.38a.65.65,0,0,0,.37.57,1.19,1.19,0,0,0,.7.18.88.88,0,0,0,.37-.17.48.48,0,0,0,.23-.38c-.09,0-.12,0-.1-.13s0-.14-.1-.13-.07,0-.07,0S21.69,136.37,21.65,136.37Zm2-36.75v-.07s0-.07-.06-.07a.45.45,0,0,0-.2.11c-.09.08-.12.14-.07.18h.07c.08,0,.13,0,.13-.07S23.53,99.63,23.62,99.62Zm.63,37.43c0-.14-.13-.19-.4-.17s-.29.05-.33.1c0,.33.11.48.33.46S24.25,137.29,24.25,137.05ZM26.5,98.74a.22.22,0,0,0-.2-.14.68.68,0,0,0-.17,0,.73.73,0,0,1-.23,0h-.14c0,.14-.06.21-.2.21s-.2,0-.2.15.07.34.2.34h.34A.75.75,0,0,0,26.5,98.74Zm.35,42.41q-.13-.19-.6-.15t-.33.24c0,.09.07.13.23.12l.37,0A.36.36,0,0,0,26.85,141.15Zm.34-6s0-.06-.13-.05a.48.48,0,0,0-.27.09q-.27.17-.27.3l.14.13a.45.45,0,0,1,.43-.11c.2,0,.3-.05.3-.23s0-.06-.07,0S27.23,135.28,27.19,135.19Z"/><path class="cls-1" d="M68.71,92.35a10.67,10.67,0,0,1,1.11.07,11.17,11.17,0,0,0,1.17.06h.46a2.4,2.4,0,0,0,1.14.26h1c.44,0,.88,0,1.3.06s.86.06,1.3.06c.76,0,1.52,0,2.28-.1s1.56-.1,2.41-.1c.35,0,.69,0,1,0s.6,0,.87.09a2.76,2.76,0,0,1,.94-.09,2.71,2.71,0,0,0,.93-.1,20.19,20.19,0,0,0,2.24.12,1.67,1.67,0,0,1,1.64,1,3.57,3.57,0,0,0,.1.87c.07.28.14.55.23.8v.45a5.56,5.56,0,0,0,.1,1,4.62,4.62,0,0,1,.1,1,1.54,1.54,0,0,1-.1.58,1.32,1.32,0,0,0-.1.51,1,1,0,0,0,.1.42,1.44,1.44,0,0,1,.1.54,1.3,1.3,0,0,1-.1.49,2.48,2.48,0,0,0-.17.48,2.16,2.16,0,0,1,.27,1,3.64,3.64,0,0,1-.17,1A3.82,3.82,0,0,0,88.7,104a2.27,2.27,0,0,0,.16.86,2.18,2.18,0,0,1,.17.87,1.07,1.07,0,0,1-.13.51,1.08,1.08,0,0,0-.14.45,1.52,1.52,0,0,0,.17.71,1.81,1.81,0,0,1,.16.83,1,1,0,0,1-.16.58.79.79,0,0,0-.17.45,1.18,1.18,0,0,0,.16.61,1.1,1.1,0,0,1,.17.61,1.81,1.81,0,0,1-.1.61,1.77,1.77,0,0,0-.1.61,7.27,7.27,0,0,0,.06,1,5.86,5.86,0,0,1,.07,1,.7.7,0,0,1-.2.52.59.59,0,0,0-.2.45,1.29,1.29,0,0,0,.23.7,1.55,1.55,0,0,1,.23.83,1.81,1.81,0,0,1-.1.58,2.1,2.1,0,0,0-.1.65,5.86,5.86,0,0,0,.07,1,6.8,6.8,0,0,1,.06.9,2.75,2.75,0,0,1-.2,1.09,5.14,5.14,0,0,1,.1.61,5.79,5.79,0,0,1,0,.61c0,.21,0,.43,0,.64s-.06.43-.1.64.07.45.1.71,0,.53,0,.83a6.51,6.51,0,0,1,0,.77,4.67,4.67,0,0,1-.1.71,2.31,2.31,0,0,0,.1.64,2,2,0,0,1,.1.64,1.07,1.07,0,0,1-.07.39,1.53,1.53,0,0,0-.06.45v.45a.85.85,0,0,1-.14.58,1.42,1.42,0,0,1,.2.89c0,.22,0,.44,0,.68a5.8,5.8,0,0,0,0,.74,1.78,1.78,0,0,0,.27,1,1.83,1.83,0,0,1,0,.35,1.37,1.37,0,0,0,0,.36,6.38,6.38,0,0,0,.1,1.15,6.77,6.77,0,0,1,.1,1.22,6,6,0,0,1-.07.93,3.19,3.19,0,0,1-.2.81.33.33,0,0,1,.1.32.32.32,0,0,0,.1.31,2.49,2.49,0,0,0-.17.78c0,.3-.21.48-.57.53a12.83,12.83,0,0,1-1.17.66,3.38,3.38,0,0,1-1.38.34,3.59,3.59,0,0,1-.8-.09c-.4.05-.81.09-1.24.11l-1.3.06-1.31.06c-.42,0-.86,0-1.31,0a4.81,4.81,0,0,1-1,.18q-.6,0-1.47,0a2,2,0,0,1-1.34-.45,2.6,2.6,0,0,1-1-2.16v-.91a2.43,2.43,0,0,0-.07-.61,3.37,3.37,0,0,1-.06-.68,1.58,1.58,0,0,1,.27-1,.24.24,0,0,0-.14-.25c.09-.48.19-1,.31-1.51a7.9,7.9,0,0,0,.17-1.63v-.52a.81.81,0,0,0,.06-.33,2.56,2.56,0,0,0,0-.39,2.9,2.9,0,0,1,0-.45.8.8,0,0,1,0-.23.53.53,0,0,0,0-.23v-.19a.66.66,0,0,1,.53-.28,1.06,1.06,0,0,1,.3,0,1.78,1.78,0,0,0,.31,0,.32.32,0,0,1,.23-.17.21.21,0,0,0,.17-.23c0-.22-.16-.32-.47-.31l-.67,0c-.36,0-.55-.11-.57-.36s0-.48,0-.65a.94.94,0,0,1,.34-.79,1.28,1.28,0,0,0,.67.1,1.24,1.24,0,0,0,.87-.29c0-.47.11-.78.33-.92a1,1,0,0,0,.47-.53.52.52,0,0,0-.4-.18c-.22,0-.41.15-.57.44a1,1,0,0,1-1,.45,1,1,0,0,1-.84-.36,1,1,0,0,0-.83-.36c-.09,0-.14.07-.14.2a.38.38,0,0,0,.07.26l.13.12a.61.61,0,0,1-.43.41.48.48,0,0,0-.37.4.7.7,0,0,0-.64.48,2.8,2.8,0,0,1-.3.73.78.78,0,0,1-.17.56,1.65,1.65,0,0,0-.3.5.94.94,0,0,0-.3.57,2.83,2.83,0,0,1-.17.63,4.6,4.6,0,0,0-1.07,1.64,4.14,4.14,0,0,1-1.08,1.58,1.49,1.49,0,0,1-.37,1.1,7.55,7.55,0,0,0-.7.85v.27a1.32,1.32,0,0,1-.24.79,6.28,6.28,0,0,1-.47.62c-.15.18-.31.37-.47.58a1.26,1.26,0,0,0-.23.77,1.71,1.71,0,0,1-.31.7,9.66,9.66,0,0,1-.73,1.06,8.7,8.7,0,0,1-1,1,2.69,2.69,0,0,1-1.13.66,12.48,12.48,0,0,0-1.48.19,10.59,10.59,0,0,1-1.47.2,6,6,0,0,1-1-.07c-1.25.09-2.47.21-3.65.38s-2.4.31-3.64.4a6.77,6.77,0,0,1-.77,0l-.77,0-1.14-.72a1.21,1.21,0,0,1-.66-1,1,1,0,0,1,.2-.66c.13-.16.27-.34.4-.53a1.49,1.49,0,0,0,.5-.87,3.57,3.57,0,0,1,.37-1,9.14,9.14,0,0,1,1.38-1.86,12.72,12.72,0,0,0,1.71-2.48.88.88,0,0,1,.43-.73,1.8,1.8,0,0,0,.64-.53.62.62,0,0,0,.5-.4,6.09,6.09,0,0,0,.17-.61,2.27,2.27,0,0,1,.2-.57,1,1,0,0,1,.47-.43,2.08,2.08,0,0,0,.67-.8,1.35,1.35,0,0,1,.67-.66,4,4,0,0,0,.54-.92l.4-1a5.75,5.75,0,0,0,1.74-2.13A5.19,5.19,0,0,0,61.3,122a.41.41,0,0,0-.13-.32,4.6,4.6,0,0,0-1.37-.87L58.1,120a12.09,12.09,0,0,1-1.68-.86,3.26,3.26,0,0,1-1.2-1.35,14.26,14.26,0,0,0-1.1-1,1.92,1.92,0,0,1-.7-1.24,1.91,1.91,0,0,0-.57-1.12,1.45,1.45,0,0,1-.43-1.12v-.2a9.78,9.78,0,0,0-.4-1,2.44,2.44,0,0,1-.26-.93.93.93,0,0,1,.13-.31.85.85,0,0,0,.13-.43,2.2,2.2,0,0,0-.13-.8,2.31,2.31,0,0,1-.13-.74,2.74,2.74,0,0,1,.14-.87,2.73,2.73,0,0,0,.13-.87,10.28,10.28,0,0,0-.06-1.1A8.48,8.48,0,0,1,51.9,105a6,6,0,0,1,.64-2.58,13.62,13.62,0,0,0,1-2.72,4.08,4.08,0,0,1,.73-.71,2,2,0,0,0,.61-.84c0-.18.47-.74,1.4-1.68a14.68,14.68,0,0,1,1.31-1.14,18.45,18.45,0,0,1,1.51-1.07,5,5,0,0,0,1.24-.3,2.65,2.65,0,0,0,1.17-.63,4.45,4.45,0,0,1,1-.2,5.31,5.31,0,0,0,1-.2,12.93,12.93,0,0,0,2.07-.17,19.59,19.59,0,0,1,2.08-.24A3.69,3.69,0,0,1,68.71,92.35Zm13.72,18a2.26,2.26,0,0,1,.44.22h.53a.43.43,0,0,0,.4-.27.75.75,0,0,0-.43-.44,3.31,3.31,0,0,1-.5-.25.3.3,0,0,1-.2.07h-.4c-.18,0-.27,0-.27.14a.35.35,0,0,0,0,.13.28.28,0,0,1,0,.13A.87.87,0,0,0,82.43,110.37Zm-.31,4.81h.41c0-.08,0-.1.13-.06s.13,0,.13-.07-.06-.13-.2-.13a1.4,1.4,0,0,0-.6.21S82,115.19,82.12,115.18Zm-.84,4.22a1.52,1.52,0,0,0,.37.12,1.84,1.84,0,0,0,.5-.14c.25-.09.37-.18.37-.27s-.09-.16-.27-.22a1,1,0,0,1-.33-.15,1.18,1.18,0,0,0-1,.41A.71.71,0,0,0,81.28,119.4ZM81.9,128H82l.2-.14.07.06s.06-.13.06-.39a2.7,2.7,0,0,0-.53-.11,2.2,2.2,0,0,0-.81.29A.93.93,0,0,0,81.9,128Zm-1-21.9c0,.11,0,.16.13.16s.07,0,.07,0,0,0,.06,0l.14.13a1,1,0,0,1,.47-.17,1.63,1.63,0,0,0,.53-.17c0-.13-.1-.23-.3-.32a1.34,1.34,0,0,0-.43-.12.66.66,0,0,0-.37.1l-.3.17Zm.07-3.72h.53v-.07a.29.29,0,0,0-.1-.26,1.5,1.5,0,0,1-.23-.19.24.24,0,0,1-.2.07.31.31,0,0,1-.13,0,.53.53,0,0,0-.2,0c-.09,0-.14,0-.14.06a.26.26,0,0,0,.07.2C80.58,102.27,80.72,102.35,80.94,102.35Zm.3,21.15.2,0c0-.13-.06-.19-.2-.19H81A.28.28,0,0,0,81.24,123.5Zm-3.61-2.64a8.37,8.37,0,0,1-1.17.1c-.42,0-.81,0-1.17.07s-.54.2-.54.5c.27.34.51.51.74.5h.13a4.44,4.44,0,0,1,.5,0c.2,0,.42,0,.64,0a1.12,1.12,0,0,0,.7-.22,3.76,3.76,0,0,0,.4-.4l.34-.4a.59.59,0,0,1,.43-.21,1.51,1.51,0,0,1,1,.36,1.51,1.51,0,0,0,1,.36,2.18,2.18,0,0,0,.44-.08c.2,0,.3-.11.3-.2l-1.14-.48-.9-.5a2.5,2.5,0,0,1-.7-.56.31.31,0,0,0-.3.2l-.17.33A.55.55,0,0,1,77.63,120.86Zm2.13,5c0,.13.1.16.31.09s.34-.07.43,0a.68.68,0,0,1,.34-.23c.17-.07.26-.15.26-.24s-.13-.19-.4-.18a2.89,2.89,0,0,0-.57.08.71.71,0,0,0-.37.34Zm-1-15.08a5.25,5.25,0,0,0,.8.08c.27,0,.42-.08.47-.21v-.25s0-.07-.07-.07h-.13a3.54,3.54,0,0,1-.47-.12,1.36,1.36,0,0,0-.47-.05,1,1,0,0,0-.4.07h-.07c-.09,0-.13,0-.13.07a.17.17,0,0,1-.07.13C78.23,110.65,78.41,110.77,78.72,110.83Zm.72,7.2c.32,0,.47-.06.47-.15a.3.3,0,0,0-.27-.31,1.93,1.93,0,0,0-.4-.06,2.5,2.5,0,0,0-.4.08c-.18,0-.27.09-.27.14A1.05,1.05,0,0,0,79.44,118Zm-.06-2.4q.27,0,.27-.33h-.34a.22.22,0,0,0-.2.14Q79.11,115.65,79.38,115.63Zm-.68-12c.2-.07.34-.06.43,0a.18.18,0,0,0,.13-.06v-.07a.15.15,0,0,0-.1-.16.15.15,0,0,1-.1-.16h-.4c-.18,0-.27.07-.27.2S78.49,103.71,78.7,103.64Zm-.21,23.15c0,.18.05.26.14.26a2.73,2.73,0,0,1,.33-.14.28.28,0,0,0,.2-.27c0-.21-.09-.32-.27-.31a.27.27,0,0,0-.16.07l-.24.14ZM78,100.89V101c0,.13.11.19.33.19a1.11,1.11,0,0,0,.47-.14c.18-.08.27-.17.27-.26s-.11-.19-.34-.19a1,1,0,0,0-.36.07,3.24,3.24,0,0,0-.31.13A.18.18,0,0,1,78,100.89Zm.59,5.18a.12.12,0,0,1,0-.16c0-.07,0-.1-.06-.1h-.14a.4.4,0,0,1-.2-.12.38.38,0,0,0-.27-.13l-.06.13a.05.05,0,0,1,.06.06v.13C78.1,105.92,78.32,106,78.59,106.07Zm-3.43,12.66c0,.21,0,.33.13.35a1.35,1.35,0,0,1,.47.34H76a.88.88,0,0,1,.3,0,.8.8,0,0,0,.23,0,3.14,3.14,0,0,0,.57-.18c.29-.12.44-.28.44-.5s-.3-.33-.91-.33a6.44,6.44,0,0,1-1.37-.13v.2A.2.2,0,0,0,75.16,118.73Zm1.14-3.93a2.9,2.9,0,0,0,.54-.11c.27-.07.4-.15.4-.24v-.13l.07-.06c0-.09-.11-.13-.34-.12h-.13v.06a1,1,0,0,1-.64.08,1,1,0,0,0-.7.15C75.59,114.69,75.86,114.81,76.3,114.8Zm-.44-15.18c0,.13,0,.19.17.19h.23a.72.72,0,0,0,.6-.27c0-.13-.15-.19-.47-.19a.77.77,0,0,0-.53.14Zm-6.77,4.08a3.2,3.2,0,0,0-.87.51,2.4,2.4,0,0,0-.7.53,3.69,3.69,0,0,1-.7.6,2.22,2.22,0,0,1-.71,1.13,1.92,1.92,0,0,0-.57,1.46.7.7,0,0,0,.2.52v1a6.42,6.42,0,0,0,.33,2.12A2.56,2.56,0,0,0,67.34,113a1.07,1.07,0,0,0,.57.68,7.43,7.43,0,0,0,1,.4q.57.18,1.14.33a3.77,3.77,0,0,1,1,.39h.66l1.48,0a4.48,4.48,0,0,0,1.44-.27c.47-.16.7-.35.7-.57v-.19a1,1,0,0,1,.2-.59.92.92,0,0,0,.2-.59,4.74,4.74,0,0,0-.06-.71,3.78,3.78,0,0,1-.07-.71,3.06,3.06,0,0,1,0-.56,3.19,3.19,0,0,0,0-.42,5,5,0,0,1-.06-.84v-3.64a3.53,3.53,0,0,0,.1-.46,1.72,1.72,0,0,0,0-.39,1.39,1.39,0,0,0-.64-1.22,4.54,4.54,0,0,0-1.23-.64,6,6,0,0,1-1.91.13,3.62,3.62,0,0,0-1.84.25ZM74.45,101h-.13s-.07,0-.07,0,0,0-.07,0-.06,0-.06.07v.06C74.34,101.06,74.45,101,74.45,101ZM71.88,121.2a1.55,1.55,0,0,1-.74.39.49.49,0,0,1-.2,0,.4.4,0,0,0-.2,0,1.5,1.5,0,0,0-.61.21,1.2,1.2,0,0,0-.53.48c0,.13.09.19.27.19a.8.8,0,0,0,.2-.08,2,2,0,0,1,.23-.1.77.77,0,0,0,.24-.17,3.36,3.36,0,0,1,.73-.42h.4a.34.34,0,0,0,.4.11.58.58,0,0,1,.47,0c.14-.09.44-.32.91-.68s.7-.63.7-.8a.51.51,0,0,0-.13-.39.68.68,0,0,0-.64.35.94.94,0,0,1-.57.47A2.11,2.11,0,0,0,71.88,121.2Zm.94-3.25c0,.09,0,.12.1.09s.1,0,.1.1h.33a.18.18,0,0,0,.2-.2.63.63,0,0,1-.2-.13.28.28,0,0,0-.2-.06.14.14,0,0,0-.1.07s-.1.07-.23.07Zm-.95,8.21c.22,0,.49,0,.8,0V126c0-.13-.11-.25-.33-.38h-.07a.28.28,0,0,1-.2-.06.22.22,0,0,0-.14-.06.19.19,0,0,0-.13.07.28.28,0,0,1-.2.07h-.13a.12.12,0,0,0-.14.13A.64.64,0,0,0,71.87,126.16Zm-.67-2.09c.27,0,.39-.06.37-.15a.28.28,0,0,1,.1-.26c0-.18-.16-.26-.47-.25s-.56.11-.6.29A.55.55,0,0,0,71.2,124.07Zm-2.77-3.83a.59.59,0,0,1,0,.33.81.81,0,0,0,.33.06.72.72,0,0,0,.7-.42.72.72,0,0,1,.71-.42l.4,0a1.79,1.79,0,0,0,.4,0c.4,0,.63-.17.67-.48a1,1,0,0,0-.73-.3,1.92,1.92,0,0,0-.47.11c-.23.08-.47.17-.74.29a6.5,6.5,0,0,0-.7.35,4.58,4.58,0,0,1-.44.24C68.44,120.05,68.41,120.11,68.43,120.24Zm2,8.07a.76.76,0,0,1,.51.07.12.12,0,0,1,.13-.13h.13c.09,0,.13,0,.11-.07s0-.06,0-.06c0-.22-.1-.31-.3-.28a.53.53,0,0,1-.44-.08c0,.08,0,.13-.06.13h-.14c-.09,0-.13,0-.13.11s-.05.1-.14.1C70.12,128.27,70.22,128.34,70.42,128.31Zm-1.5-.76.07-.06c0-.18-.07-.26-.2-.26s-.14,0-.14.14A1.06,1.06,0,0,0,68.92,127.55Zm-2.08,1.54a.56.56,0,0,0,.4.17.4.4,0,0,0,.27-.07,1.64,1.64,0,0,0-.4-.38,1,1,0,0,0-.67-.16v.13A1.88,1.88,0,0,1,66.84,129.09Zm.63-12.94L67.3,116a.26.26,0,0,0-.23-.09L67,116A.65.65,0,0,0,67.47,116.15ZM66,119.87a1.68,1.68,0,0,0,.74-.35,3.5,3.5,0,0,0,.73-.69.51.51,0,0,0-.53-.24,2.09,2.09,0,0,1-.44.47l-.7.68C65.88,119.83,66,119.87,66,119.87ZM64.61,104.2a.66.66,0,0,0,.27.06c.4,0,.6-.12.6-.34s-.13-.32-.4-.32a.87.87,0,0,0-.43.14,1.69,1.69,0,0,0-.37.27A3.25,3.25,0,0,0,64.61,104.2Zm-1.15,11.21c0,.14,0,.21.13.23a.55.55,0,0,1,.27.16,3.18,3.18,0,0,1,.8-.22c.31-.06.47-.19.47-.41s0-.13-.07-.13h-.13a.28.28,0,0,1-.2-.06.55.55,0,0,0-.34,0,1.05,1.05,0,0,0-.93.42Zm.37,17.44a1,1,0,0,1,.26.18.79.79,0,0,1,.44-.05c.2,0,.32,0,.37-.19s0-.26-.07-.26-.07,0-.07,0,0,0-.06,0a.4.4,0,0,0-.31-.11.4.4,0,0,1-.3-.12c0,.14-.12.18-.23.15s-.17,0-.17.14A.2.2,0,0,0,63.83,132.85Zm-.37-22.77a1.07,1.07,0,0,0,.41.06.24.24,0,0,0,.26-.27c0-.05,0-.11-.13-.2a.88.88,0,0,1-.44,0c-.2,0-.32,0-.36.17A1,1,0,0,0,63.46,110.08Zm-1.13-2.35h.54a.21.21,0,0,1,.13-.2c.09,0,.13-.09.13-.13a.19.19,0,0,1-.13-.07s-.07,0-.07,0,0,0-.06,0h-.2l-.14-.07c0,.09-.06.13-.2.14s-.14,0-.17.07a.13.13,0,0,1-.1.07A.23.23,0,0,0,62.33,107.73Zm-.12-6.52h.4v-.07l-.2-.19c-.09,0-.13,0-.13.07s-.05.06-.14.06h-.07A.12.12,0,0,0,62.21,101.21Z"/><path class="cls-1" d="M104,92.06a3.35,3.35,0,0,0,1.67.22,6.28,6.28,0,0,1,1.74,0,2,2,0,0,1,1.33.82,4.66,4.66,0,0,1,.54,2.67,1.7,1.7,0,0,1-.1.57,1.32,1.32,0,0,0-.1.51,1.24,1.24,0,0,0,.1.5,1.72,1.72,0,0,1,.1.58,4.77,4.77,0,0,1-.1,1,4.06,4.06,0,0,0-.11,1,2.79,2.79,0,0,0,.1.67,2.38,2.38,0,0,1,0,1.46,2,2,0,0,0-.13.73,1,1,0,0,0,.13.5,1.07,1.07,0,0,1,.13.51,1.12,1.12,0,0,1-.1.48,1.24,1.24,0,0,0-.1.47,3,3,0,0,0,.07.61,4.23,4.23,0,0,1,.06.73,5.74,5.74,0,0,1,0,.6,1,1,0,0,1-.17.48,5.34,5.34,0,0,0,.14,1.17,6,6,0,0,1,.13,1.17,1.06,1.06,0,0,1,0,.29,1.49,1.49,0,0,0,0,.28,1,1,0,0,1,.07.45,1.54,1.54,0,0,1-.17.7,1.48,1.48,0,0,0-.17.7,1.05,1.05,0,0,0,.14.5,1.48,1.48,0,0,1,.13.64,1.82,1.82,0,0,1-.14.66,1.89,1.89,0,0,0-.13.67.83.83,0,0,0,.17.38,1,1,0,0,1,.17.57,3.09,3.09,0,0,1-.11.83,2.14,2.14,0,0,0-.1.57,2.34,2.34,0,0,0,.2.95,2.48,2.48,0,0,1,.2,1.08,1.72,1.72,0,0,1-.1.6,1.82,1.82,0,0,0-.1.54,1.14,1.14,0,0,0,.1.44,1.48,1.48,0,0,1,.1.57,1,1,0,0,1-.13.45c.09.38.18.73.27,1a4.57,4.57,0,0,1,.13,1.11v.32a2.76,2.76,0,0,1,.27,1.3,1.11,1.11,0,0,0,.6,1.1,3,3,0,0,0,1.64,1.38,16,16,0,0,1,1.91.74l.83.24a3.31,3.31,0,0,0,1,.12h.21a2.33,2.33,0,0,0,.53.06h.54a5.06,5.06,0,0,0,2.88-.77l1.3-.48a1.81,1.81,0,0,0,1-.8,7.58,7.58,0,0,1,.46-1,9.3,9.3,0,0,1,.61-.88,6.85,6.85,0,0,0,.43-1.21,5.33,5.33,0,0,0,.24-1,1.72,1.72,0,0,0-.07-.47,1.67,1.67,0,0,1-.07-.42,1,1,0,0,1,.27-.63,1.12,1.12,0,0,0,.27-.76,1.09,1.09,0,0,0-.17-.54,1.13,1.13,0,0,1-.17-.6,3.26,3.26,0,0,1,.11-.79,4,4,0,0,0,.1-.85,1.87,1.87,0,0,0,0-.35,2.13,2.13,0,0,0-.1-.35.47.47,0,0,1,.1-.25.47.47,0,0,0,.1-.32,1.58,1.58,0,0,0-.13-.53,2.42,2.42,0,0,1-.14-.86,6.51,6.51,0,0,1,.14-1.2,1.82,1.82,0,0,1-.13-.51,2.46,2.46,0,0,1,.1-.72,3,3,0,0,0,.1-.73,15.73,15.73,0,0,1-.07-2.6,17.75,17.75,0,0,0-.07-2.65,1.17,1.17,0,0,0,.2-.76,1,1,0,0,0-.13-.54.9.9,0,0,1-.13-.47,1.39,1.39,0,0,1,.13-.61,1.38,1.38,0,0,0,.13-.6v-.12a1.14,1.14,0,0,1-.2-.57,5.52,5.52,0,0,1-.06-.64,6.32,6.32,0,0,1,.06-.91,4.83,4.83,0,0,0,.07-.86,3.09,3.09,0,0,0-.07-.66,3.88,3.88,0,0,1-.06-.67,5.31,5.31,0,0,1,.13-1.17,5.88,5.88,0,0,0,.13-1.29v-.13a1.06,1.06,0,0,1-.2-.57,5.4,5.4,0,0,1-.06-.63,3.91,3.91,0,0,1,.26-1.65,2.09,2.09,0,0,1,.67-.76,4.48,4.48,0,0,1,.91-.41,2.77,2.77,0,0,0,.9-.47h.67a11.89,11.89,0,0,1,1.74.12,10.94,10.94,0,0,0,1.8.13,6.35,6.35,0,0,0,1.07-.09,5.61,5.61,0,0,1,1.07-.1,29.74,29.74,0,0,1,3.11.16c1,.11,1.49.22,1.58.35a5,5,0,0,0,.73.79,1.31,1.31,0,0,1,.41,1.05.72.72,0,0,1,0,.22.73.73,0,0,0,0,.22,32.36,32.36,0,0,1,.07,3.55,22.45,22.45,0,0,0,.13,3.49l-.3.69a1.64,1.64,0,0,0-.16.51,1.72,1.72,0,0,0,.1.6,2.2,2.2,0,0,1,.1.67,1.44,1.44,0,0,1-.1.54,1.8,1.8,0,0,0-.1.72,5.46,5.46,0,0,1,.2.77,5.12,5.12,0,0,1,.07.82,9.21,9.21,0,0,1-.14,1.55c-.09.53-.15,1-.2,1.49a1.2,1.2,0,0,1,.27.89,2.84,2.84,0,0,1-.1.76,2.26,2.26,0,0,0-.1.57v.44a1.07,1.07,0,0,1,.13.51,3.16,3.16,0,0,1-.06.66,2.11,2.11,0,0,0-.07.54,1.54,1.54,0,0,0,.13.67,1.54,1.54,0,0,1,.14.67c0,.38,0,.91-.1,1.61a3.56,3.56,0,0,1-.43,1.55,2.68,2.68,0,0,0,.1.7,3.1,3.1,0,0,1,.1.7,1.33,1.33,0,0,1-.07.38,1.16,1.16,0,0,0-.07.44,7.21,7.21,0,0,0,0,.79c0,.28,0,.54,0,.79a2.21,2.21,0,0,1-.2.89,2,2,0,0,0-.2.57.84.84,0,0,0,.1.28,1,1,0,0,1,.1.42,2.42,2.42,0,0,1-.2,1,2.17,2.17,0,0,0-.2.79.84.84,0,0,0,.07.35,1,1,0,0,1,.06.35c-.09.29-.16.55-.23.79s-.13.46-.2.69-.12.41-.17.54a.94.94,0,0,0-.37.5,3.53,3.53,0,0,0-.13.63c0,.21-.06.44-.1.67a.87.87,0,0,1-.27.53A2.39,2.39,0,0,0,136,133a1.27,1.27,0,0,1-.9.88,11.33,11.33,0,0,1-1.11,1.35,4.26,4.26,0,0,1-1.37,1,5.43,5.43,0,0,1-3.09,2,1.32,1.32,0,0,0-.83.38,1.3,1.3,0,0,1-1,.31,4.85,4.85,0,0,0-1.38.44,3.36,3.36,0,0,1-1.51.32.8.8,0,0,1-.23,0,.88.88,0,0,0-.24,0,1.12,1.12,0,0,1-.93.25,3.28,3.28,0,0,0-1.14.07l-1.61.26a10.61,10.61,0,0,1-1.54.14,6.2,6.2,0,0,1-1-.06,5.91,5.91,0,0,1-1,.07,16.87,16.87,0,0,1-1.78-.07,13.8,13.8,0,0,0-1.71-.08,1.88,1.88,0,0,0-.6.11,1.71,1.71,0,0,1-.54.1,1.83,1.83,0,0,1-.77-.21,1.69,1.69,0,0,0-.84-.21h-.53a1,1,0,0,1-.4-.06,2.26,2.26,0,0,1-.61.07,2.42,2.42,0,0,1-1.44-.38,2.23,2.23,0,0,0-1.37-.39,15.07,15.07,0,0,1-1.68-.57c-.53-.22-1.07-.43-1.6-.63l-1.07-.26a1.57,1.57,0,0,1-.88-.65,1.5,1.5,0,0,0-.6-.69c-.27-.16-.56-.31-.87-.46a3.33,3.33,0,0,1-.83-.52,1.55,1.55,0,0,1-.51-.88,4.1,4.1,0,0,0-.83-1c-.43-.4-.64-.7-.64-.91a1.22,1.22,0,0,0-.17-.67,3.2,3.2,0,0,0-.36-.5,2.7,2.7,0,0,1-.37-.5,1.46,1.46,0,0,1-.17-.73V130a4.57,4.57,0,0,0-.53-.88,1.78,1.78,0,0,1-.34-1.14,1,1,0,0,1,.07-.39,3,3,0,0,0-.2-1.14,3.19,3.19,0,0,1-.2-1.15,1.7,1.7,0,0,1,.14-.77c-.14-.25-.27-.5-.4-.76a7.37,7.37,0,0,0,0-1.15,3.58,3.58,0,0,1,.1-1.09,1.31,1.31,0,0,1-.26-.89,3.55,3.55,0,0,1,.06-.64,4,4,0,0,1,.21-.64c0-.21-.1-.44-.17-.67a2.52,2.52,0,0,1-.1-.73,4,4,0,0,1,.14-1.06,4.88,4.88,0,0,0,.13-1.06,4.37,4.37,0,0,0-.07-.79,6.61,6.61,0,0,1-.06-.93,6.45,6.45,0,0,1,0-.67,5.48,5.48,0,0,0,0-.55,3.3,3.3,0,0,0-.1-.76,3.15,3.15,0,0,1-.1-.83c0-.3,0-.72.07-1.25a4.85,4.85,0,0,1,.2-1.18,1.51,1.51,0,0,1-.17-.58c0-.21,0-.42,0-.64a4.66,4.66,0,0,1,.07-.89,5.49,5.49,0,0,0,.06-.83c0-.6,0-1.19-.06-1.76s-.07-1.14-.07-1.7a.72.72,0,0,0,.11-.51.51.51,0,0,1,.1-.45l-.07-.06a1.25,1.25,0,0,1-.07-.45V99.93a1.93,1.93,0,0,1,.07-.45,1.78,1.78,0,0,1-.06-.51,2.82,2.82,0,0,1,.13-.87l.27-.8-.14-.06a1.78,1.78,0,0,1-.06-.51,4.76,4.76,0,0,1,.07-.86,7.88,7.88,0,0,0,.07-.8,1.21,1.21,0,0,0-.14-.58A1,1,0,0,1,94.6,94a1.28,1.28,0,0,1,.6-1.15,4.27,4.27,0,0,1,1.37-.54,6.21,6.21,0,0,1,1.54-.13l1.17,0a15.07,15.07,0,0,0,2.14-.13,15.91,15.91,0,0,1,2-.13.84.84,0,0,1,.27,0A1.24,1.24,0,0,0,104,92.06Zm-4,17.33a2.84,2.84,0,0,0-.41-.28c-.17-.1-.26-.18-.26-.22h-.34c-.13,0-.2,0-.2.13a.3.3,0,0,0,.2.32.81.81,0,0,1,.34.19.13.13,0,0,0,.1,0,.13.13,0,0,1,.1,0,.28.28,0,0,1,.16,0,.17.17,0,0,0,.1,0S99.84,109.48,99.94,109.39Zm1.94.3a.81.81,0,0,0-.74-.31.44.44,0,0,0,.27.44,1,1,0,0,0,.4.13.12.12,0,0,0,.13-.13A.19.19,0,0,1,101.88,109.69Zm1.52,13.15s-.09-.06-.26,0-.27.09-.27.25.06.26.2.26a.71.71,0,0,0,.2-.1.28.28,0,0,0,.13-.23Zm1-20.16v-.13c0-.09,0-.13-.14-.13a.17.17,0,0,0-.1,0,.11.11,0,0,1-.1,0c-.09,0-.13,0-.13-.13a.72.72,0,0,1-.54.07c-.22,0-.33,0-.33.25a.58.58,0,0,0,.37.32,1.54,1.54,0,0,0,.57.12,1.13,1.13,0,0,0,.53-.19C104.49,102.76,104.45,102.67,104.36,102.68Zm1.13,4.56v-.12c0-.09,0-.13-.13-.13s-.34.05-.34.13S105.18,107.25,105.49,107.24Zm2.8,22.14c-.09,0-.14,0-.14-.06a.05.05,0,0,0-.06-.06H108c0,.08-.06.13-.2.13s-.2,0-.2.13.16.12.47.12A.24.24,0,0,0,108.29,129.38Zm2.74,2.88a.52.52,0,0,0-.47-.18,1.29,1.29,0,0,0-.53.13.53.53,0,0,0,.1.29.27.27,0,0,0,.23.15.49.49,0,0,0,.2,0,.5.5,0,0,1,.2,0h.14c0-.08,0-.13.07-.13s.06,0,.06-.12Zm14.74-2.82c-.53-.25-.87-.4-1-.44s-.2,0-.2,0a.9.9,0,0,0-.61.25,1.14,1.14,0,0,0,.81.26,3.23,3.23,0,0,0,.53,0Zm2.81-3.73h-.26s-.07,0-.07-.06a2.06,2.06,0,0,1-.7.12.63.63,0,0,0-.57.32.31.31,0,0,0,.23.32,1.29,1.29,0,0,0,1-.1A.59.59,0,0,0,128.58,125.71Zm-.2,2.53s-.17-.06-.4-.06-.58.07-.67.22l-.2.35a.49.49,0,0,0,.3.19c.16,0,.21.06.17.06a.48.48,0,0,0,.24-.06.42.42,0,0,1,.23-.07h.07c.22-.08.33-.21.33-.37a.28.28,0,0,0,0-.13A.33.33,0,0,1,128.38,128.24Zm-.13-11.2a1.24,1.24,0,0,1-.2-.22.24.24,0,0,0-.2-.09s-.07,0-.07,0,0,0-.07,0c0,.21.09.32.27.32A.37.37,0,0,0,128.25,117Zm2.08,10.57-.17-.09a.29.29,0,0,0-.17,0c-.13,0-.2,0-.2.12v.26C130.1,127.87,130.28,127.78,130.33,127.61Zm1.8-20.81c0-.09,0-.13-.13-.13h-.47c0,.09,0,.13-.07.13s-.07,0-.07.12V107a.73.73,0,0,1,.41,0C132,107,132.09,106.92,132.13,106.8Zm1.07,2.34c0-.12-.17-.18-.37-.16a1.32,1.32,0,0,1-.5,0l-.13.13a.22.22,0,0,0,.1.19c.07,0,.1.08.1.12a.7.7,0,0,1,.53,0C133.11,109.43,133.2,109.35,133.2,109.14Zm.94,5.2c-.09,0-.13-.1-.13-.16s0-.1-.07-.1-.07,0-.07,0,0,0-.06,0h-.14s-.07,0-.07-.12a1.88,1.88,0,0,1-.63.15.37.37,0,0,0-.37.41c0,.13.11.19.34.19a2.21,2.21,0,0,0,.7-.09A.72.72,0,0,0,134.14,114.34Zm.06-10.89a.52.52,0,0,0-.33-.19.53.53,0,0,0-.3.12c-.11.09-.17.17-.17.26a.15.15,0,0,1,.07.12h.4a.45.45,0,0,0,.27-.06.05.05,0,0,0,.06-.06Z"/><path class="cls-1" d="M187.61,91.93a1.62,1.62,0,0,1,.57-.09,1.77,1.77,0,0,1,1.44,1,3.07,3.07,0,0,1,.64,1.55,2.68,2.68,0,0,1-.1.76,3,3,0,0,0-.1.69,1.7,1.7,0,0,1,.1.8,1.06,1.06,0,0,0,.17.72,4.93,4.93,0,0,0,.11,1,5.4,5.4,0,0,1,.1,1,2.08,2.08,0,0,1-.2.92,1.94,1.94,0,0,1,.07.46v.59a3.29,3.29,0,0,1-.07.73,3.68,3.68,0,0,0-.06.66,1.72,1.72,0,0,0,.13.66,1.72,1.72,0,0,1,.13.66,2.08,2.08,0,0,1-.13.53,4,4,0,0,0,0,.62q0,.3,0,.63a.59.59,0,0,1-.2.49.79.79,0,0,0-.2.62,1.57,1.57,0,0,0,.1.57,1.34,1.34,0,0,1,.1.56,2.18,2.18,0,0,1-.13.79c-.09.26-.17.5-.26.72q.2.08.3.63c.07.38.1.59.1.63a1.16,1.16,0,0,1-.2.72,2.16,2.16,0,0,1,.13.66,5.16,5.16,0,0,1-.06.79,5.39,5.39,0,0,0-.07.79,1.33,1.33,0,0,0,.14.6,1.32,1.32,0,0,1,.13.6,2.06,2.06,0,0,1-.46,1.17,1.38,1.38,0,0,0,.2.63,1.8,1.8,0,0,1,.2.84,1.71,1.71,0,0,1-.1.68,2.81,2.81,0,0,1-.3.55c0,.09.07.18.2.28s.21.42.21,1a4,4,0,0,1,0,.66,5.28,5.28,0,0,0,0,.59V122q0,.66-.33.78a1.47,1.47,0,0,0,.13.6,1.46,1.46,0,0,1,.14.66,1.87,1.87,0,0,1-.1.59,1.73,1.73,0,0,0-.1.46,1,1,0,0,0,.13.3.93.93,0,0,1,.14.44,1.62,1.62,0,0,1-.23.88,1.52,1.52,0,0,0-.24.88,1.48,1.48,0,0,0,.11.53,1.89,1.89,0,0,1,.1.6,3.37,3.37,0,0,1-.07.69,4.25,4.25,0,0,0-.07.69,2.35,2.35,0,0,0,.07.53c0,.44-.06.86-.06,1.28v3.46q0,.53,0,1t0,1a2.72,2.72,0,0,0,.17.87,3,3,0,0,1,.17,1,1.39,1.39,0,0,1-1.24,1.5,11.07,11.07,0,0,1-2.84.16,4.86,4.86,0,0,1-1-.19c-.49,0-1,0-1.41,0s-.91,0-1.41-.05c-.26,0-.54,0-.83-.08s-.57-.06-.84-.08l-.6,0a.71.71,0,0,1-.47-.16,5,5,0,0,1-1.54.12c-.22,0-.46,0-.7-.07a6.08,6.08,0,0,0-.71-.07l-.46,0a.88.88,0,0,1-.54-.16.76.76,0,0,1-.54.1l-.6,0h-.2v.13a23.21,23.21,0,0,0-3.15-.47l-3.28-.27a5.24,5.24,0,0,1-1.14.08,1.29,1.29,0,0,1-.87-.29,1.16,1.16,0,0,1-.47,0,1.86,1.86,0,0,1-.87-.22,1.69,1.69,0,0,0-.87-.23.75.75,0,0,0-.23,0l-.24,0a2.18,2.18,0,0,0-1.4-.4,2.36,2.36,0,0,1-1.41-.4,2.36,2.36,0,0,0-1.31-.56,3.12,3.12,0,0,1-1.3-.42,1.6,1.6,0,0,0-.88-.51,1.43,1.43,0,0,1-.87-.56.81.81,0,0,1-.53-.4.71.71,0,0,0-.61-.34,3.53,3.53,0,0,1-.7-.46,1.94,1.94,0,0,0-.77-.4,3.92,3.92,0,0,0-.77-.69l-.84-.59a5.81,5.81,0,0,1-.74-.66,2.68,2.68,0,0,1-.54-.87,8.37,8.37,0,0,0-1.1-1.23,4.21,4.21,0,0,1-1-1.29.77.77,0,0,0-.17-.51,2.33,2.33,0,0,0-.4-.36,2,2,0,0,1-.41-.35.87.87,0,0,1-.16-.58,6.32,6.32,0,0,0-.81-2.2,7.41,7.41,0,0,1-.87-2.08,1.18,1.18,0,0,1,.07-.35,2,2,0,0,0,.06-.53.51.51,0,0,0-.17-.45.34.34,0,0,1-.16-.26v-.19a.27.27,0,0,0-.07-.19.27.27,0,0,1-.07-.19,1.11,1.11,0,0,1,0-.29,1.49,1.49,0,0,0,0-.28,1.25,1.25,0,0,0-.17-.61,1.19,1.19,0,0,1-.17-.6,4.6,4.6,0,0,1,.07-.7,4.88,4.88,0,0,0,.07-.76c0-.47,0-1.06,0-1.78s-.06-1.42-.1-2.1a1.07,1.07,0,0,1,.23-.37,1.09,1.09,0,0,0,.24-.45,1.14,1.14,0,0,1-.1-.63,2.26,2.26,0,0,0,0-.7c.09-.17.16-.31.2-.41a3.2,3.2,0,0,0,.14-.41.82.82,0,0,1-.07-.39,2.71,2.71,0,0,1,.27-1.23,2.35,2.35,0,0,0,.26-1A.41.41,0,0,1,146,108a.65.65,0,0,1,.33-.54.8.8,0,0,0,.33-.73v-.38a4.09,4.09,0,0,1,.64-1.55c.42-.74.81-1.36,1.17-1.87a2.18,2.18,0,0,1,.73-1.46c.49-.5.83-.86,1-1.07a4,4,0,0,1,1-1.08c.38-.3.77-.57,1.17-.83a3.52,3.52,0,0,1,1.11-1.07,15.12,15.12,0,0,0,1.3-.89,1.15,1.15,0,0,1,.77-.48,2,2,0,0,0,.9-.41c.18-.13.36-.24.54-.35a1.76,1.76,0,0,1,.67-.22,5.13,5.13,0,0,0,1.63-.89,5.1,5.1,0,0,1,1.84-.9,5,5,0,0,0,2-.35,5.1,5.1,0,0,1,2-.35,16,16,0,0,0,2.67-.22,18,18,0,0,1,2.95-.22q.87,0,1.74,0c.58,0,1.16,0,1.74,0s.94,0,1.37-.06a11.09,11.09,0,0,1,1.3-.07,6.29,6.29,0,0,1,.77,0c.25,0,.5,0,.77,0a3.28,3.28,0,0,0,.47,0,2,2,0,0,0,.47-.16,1.88,1.88,0,0,0,.53.06,4.78,4.78,0,0,0,1-.09,3.82,3.82,0,0,1,.9-.1,9.15,9.15,0,0,1,1.54.13,10.21,10.21,0,0,0,1.68.13H186a9.69,9.69,0,0,0,1.1-.07A1.18,1.18,0,0,0,187.61,91.93Zm-2.77,40.79.07.07q.27,0,.27-.12c0-.09-.05-.13-.14-.14Zm-3.22-6c.27,0,.55.1.84.13s.58.08.87.14a1.54,1.54,0,0,1,.7.29.36.36,0,0,1,.33-.09c.14,0,.2-.06.2-.28s-.13-.24-.4-.32l-.94-.23-1-.24a2.42,2.42,0,0,1-.71-.25.63.63,0,0,1-.33.15c-.13,0-.2.11-.2.28A1.08,1.08,0,0,0,181.62,126.69Zm2.16-27.86a1.65,1.65,0,0,0,.47-.38.22.22,0,0,1-.07-.17c0-.07,0-.1-.13-.1a.83.83,0,0,0-.4.16,3,3,0,0,0-.41.29C183.29,98.76,183.47,98.83,183.78,98.83Zm-.58,31.42a.44.44,0,0,1,0,.3.46.46,0,0,0,.21.14.76.76,0,0,0,.4-.22c.18-.14.26-.25.26-.34v-.07H184l-.41,0a.32.32,0,0,0-.2.06C183.23,130.09,183.18,130.14,183.2,130.25Zm.2-20.3-.07-.07-.07-.06c-.09,0-.13.06-.13.19Q183.4,110,183.4,110ZM181,103.64a4.82,4.82,0,0,0,.83-.09c.34-.06.51-.16.51-.29s0-.11-.14-.19c-.35,0-.7,0-1,0a.93.93,0,0,0-.76.42A1.15,1.15,0,0,0,181,103.64Zm-.08-4.31c0,.09.12.13.34.13a.43.43,0,0,0,.4-.22A.44.44,0,0,1,182,99c.09,0,.13-.06.13-.19a.21.21,0,0,0-.13-.2,1.62,1.62,0,0,0-.57.09l-.57.23Zm.9,34.84a.5.5,0,0,1,.3.05.59.59,0,0,0,.13-.45.28.28,0,0,0-.2-.08.53.53,0,0,0-.3.12.34.34,0,0,0-.17.25A.21.21,0,0,0,181.8,134.17Zm-.58-4.89a.87.87,0,0,1,.54.09.46.46,0,0,1,.2-.19c.09,0,.13-.12.13-.25h-.2a2.24,2.24,0,0,0-1,.22C180.93,129.27,181,129.32,181.22,129.28Zm.54,2.44c.09,0,.13,0,.13-.12s-.07-.17-.23-.24-.21-.11-.17-.11a.12.12,0,0,0-.1.06c0,.05-.07.09-.17.13C181.27,131.61,181.45,131.71,181.76,131.72Zm-3.61.72c-.05,0-.07,0-.07.1,0,.52.2.8.61.84a5.2,5.2,0,0,1,1.07.21.44.44,0,0,1,.4-.05c.13.05.2,0,.2-.19a1.43,1.43,0,0,0-.91-.72,10.49,10.49,0,0,0-1.1-.28C178.26,132.44,178.19,132.47,178.15,132.44Zm1.91-20H180a.06.06,0,0,0-.07.07v.13C180,112.68,180.06,112.62,180.06,112.49Zm-2.33-10.3q-.3,0-.3.42a.84.84,0,0,0,.4.07,2.06,2.06,0,0,0,1.14-.44l.73-.45c0-.08-.06-.13-.2-.13h-.33a1,1,0,0,1-.87.38A1.85,1.85,0,0,1,177.73,102.19Zm-.66,26.66a.06.06,0,0,0,.07.07h.07a.68.68,0,0,0,.46.15,1.69,1.69,0,0,0,.84-.13,4.08,4.08,0,0,1,.64-.26,5.82,5.82,0,0,1-.71-.23,2.05,2.05,0,0,0-.7-.15.64.64,0,0,0-.67.36Zm.42-32.28a.8.8,0,0,0,.23,0,.88.88,0,0,1,.24,0h.13a.24.24,0,0,0,.07-.13c0-.09,0-.13-.1-.13a.2.2,0,0,1-.17-.13h-.4c-.18,0-.27.07-.27.2A.24.24,0,0,0,177.49,96.57Zm-.93,3.63c-.09,0-.14,0-.14.06,0,.26.16.39.47.4a1.33,1.33,0,0,0,.74-.26.7.7,0,0,0,.4-.58c0-.08-.07-.13-.2-.13a1.12,1.12,0,0,0-.57.13,5.34,5.34,0,0,1-.57.25C176.69,100.16,176.65,100.2,176.56,100.2Zm-1.82,33.2a.86.86,0,0,0,.53.18l.47,0,.34,0a.59.59,0,0,0,.13-.45,1.69,1.69,0,0,0-.5-.18,1.14,1.14,0,0,1-.44-.18.67.67,0,0,1-.47.07.35.35,0,0,0-.4.21A3.71,3.71,0,0,0,174.74,133.4Zm-4.87-28.94a.68.68,0,0,1-.6.25,4.61,4.61,0,0,1-1.87.3s-.16.14-.47.29-.7.34-1.17.59l-1.54.88a18.09,18.09,0,0,0-1.57,1.08,2.45,2.45,0,0,1-.4.63c-.18.21-.36.4-.53.57a.69.69,0,0,0-.37.38,2.38,2.38,0,0,0-.14.54,3.7,3.7,0,0,1-.1.58.55.55,0,0,1-.33.41.15.15,0,0,0,0,.1.1.1,0,0,1,0,.09,2.09,2.09,0,0,1-.37,1.28,2,2,0,0,0-.37,1.21,1.67,1.67,0,0,0,.07.42,1.32,1.32,0,0,1,.07.42,2.87,2.87,0,0,1-.23,1.11,2.58,2.58,0,0,0-.24,1,1.37,1.37,0,0,0,.34.91v.19c0,.08,0,.13.07.13a1.11,1.11,0,0,1-.1.41,1.12,1.12,0,0,0-.1.48.41.41,0,0,0,.06.26,1,1,0,0,1,.37,1.09,1.72,1.72,0,0,0,.24,1.23,1.71,1.71,0,0,1,.4.93,1.47,1.47,0,0,0,.4.88,12.62,12.62,0,0,0,1.11,1.18,3.12,3.12,0,0,1,.84,1.3,5.69,5.69,0,0,0,1.61.82,5.66,5.66,0,0,1,1.54.75,4.08,4.08,0,0,0,1.54.72c.54.13,1.09.29,1.67.48a.71.71,0,0,0,.54.27,1.1,1.1,0,0,0,.4,0,1.7,1.7,0,0,1,.47-.05,2.09,2.09,0,0,1,.47.08,1.75,1.75,0,0,0,.53.09l.67,0a4.2,4.2,0,0,1,.81.09,2.5,2.5,0,0,1,.73-.1.83.83,0,0,0,.61-.23,1.49,1.49,0,0,0,.33-1,.86.86,0,0,1,.53-.85,3.11,3.11,0,0,0-.1-.79,3.22,3.22,0,0,1-.1-.84q0-.33,0-.72c0-.25,0-.49,0-.71a1.4,1.4,0,0,0-.3-1,1.21,1.21,0,0,1-.3-.89,4.36,4.36,0,0,1,.13-1.1,4,4,0,0,0,.13-1,1.9,1.9,0,0,0-.13-.68,2,2,0,0,1-.14-.69,2,2,0,0,1,.14-.74,1.9,1.9,0,0,0,.13-.68,4.59,4.59,0,0,0-.07-.81,6.27,6.27,0,0,1-.07-.88c0-.6,0-1.22.07-1.85s.06-1.24.06-1.84a1.3,1.3,0,0,0-.17-.75.93.93,0,0,1-.17-.56V109a1.35,1.35,0,0,1,.34-.93,3.37,3.37,0,0,1-.27-1.3,2.3,2.3,0,0,1,.26-1.23,1.26,1.26,0,0,0-.77-1.11,2.87,2.87,0,0,0-1-.34,3.57,3.57,0,0,0-1,.15,3.63,3.63,0,0,1-1,.15,2.55,2.55,0,0,1-.87-.21A.9.9,0,0,0,169.87,104.46Zm5.21-5.57a.19.19,0,0,0,.14-.07v-.06s-.05-.06-.14-.07-.27,0-.27.13S174.9,98.89,175.08,98.89Zm-.66,2.75a3.29,3.29,0,0,0,.6.17c.13,0,.2-.09.2-.26s-.14-.36-.43-.43a3.48,3.48,0,0,1-.71-.23V101s0,.07-.06.07-.07,0-.07.06A.59.59,0,0,0,174.42,101.64Zm-1.74,1-.13-.13c-.09,0-.14.06-.14.19Q172.68,102.75,172.68,102.69Zm-2.41-1.32h.07c.18,0,.26,0,.26-.13s-.06-.13-.2-.13-.13.07-.13.19Zm-.89,32a1.73,1.73,0,0,0,.64-.14c.24-.1.36-.19.36-.28a.05.05,0,0,0-.06-.06h-.2c-.14,0-.2-.05-.2-.14-.09.09-.27.11-.54.08s-.4.06-.4.28v.12A1.12,1.12,0,0,0,169.38,133.35Zm-1.52-33.1h.27a.75.75,0,0,0-.07-.38h-.3c-.11,0-.17.06-.17.19v.06A.28.28,0,0,0,167.86,100.25ZM165.63,133a1.19,1.19,0,0,0,.5-.15.49.49,0,0,0,.3-.47c0-.13-.11-.2-.33-.2a.73.73,0,0,0-.54.17,2.16,2.16,0,0,1-.4.31C165.16,132.83,165.32,133,165.63,133ZM161.3,98.54v-.07a.19.19,0,0,1-.13-.06c-.09-.09-.16-.13-.2-.13s-.07,0-.07.06v.13A.84.84,0,0,0,161.3,98.54Zm-1,33.1-.37,0c-.15,0-.23,0-.23.13a.05.05,0,0,0,.06.06c.05.05.08.07.11.07s0,0,.1.07C160.16,132,160.27,131.85,160.27,131.64Zm-1.61-2.1h.4a.3.3,0,0,1,.2-.15c.09,0,.14-.09.14-.22h-.54c-.27,0-.42.07-.47.24A.28.28,0,0,0,158.66,129.54Zm-.76-23.86a7.12,7.12,0,0,0,1,.07h.2v-.13c0-.13,0-.19-.13-.2h-.14a1.6,1.6,0,0,0-.67-.13.61.61,0,0,1-.53-.2.25.25,0,0,1-.2.06l-.17,0-.17,0c-.09,0-.13,0-.13.12v.13A2.34,2.34,0,0,0,157.9,105.68Zm-3.15,3.1c0,.08.07.15.21.19a.9.9,0,0,0,.26.07.57.57,0,0,0,.47-.16,1.17,1.17,0,0,1,.4-.28c0-.13-.15-.19-.33-.2h-.54c0,.09,0,.13-.06.13H155c-.09,0-.13,0-.13.07s0,.06-.14.06Zm0,6.76a.88.88,0,0,1,.34.2h.2a.56.56,0,0,1,.23,0,.88.88,0,0,0,.24,0c.13,0,.2-.06.2-.19s-.11-.31-.34-.42a1.27,1.27,0,0,0-.53-.16.38.38,0,0,0-.31.09.76.76,0,0,1-.23.15A.26.26,0,0,0,154.76,115.54Zm-.08-9.19c0,.05,0,.07-.06.07s.09.19.27.19l.53,0c.23,0,.34-.18.34-.47s-.14-.26-.41-.26a.61.61,0,0,0-.67.37Zm0,11.55a.32.32,0,0,0,.3.36l.64,0a.5.5,0,0,0,.13-.38.32.32,0,0,0-.34-.2h-.67v.13Zm-.33,6.37a1.06,1.06,0,0,0,.3,0c.11,0,.17-.12.17-.29s-.08-.15-.24-.19-.21-.07-.16-.07-.15,0-.17.09a.52.52,0,0,1-.17.22A.24.24,0,0,0,154.37,124.27Zm-1.41-7a.53.53,0,0,0,.2,0,.49.49,0,0,1,.2,0c0-.21-.14-.32-.4-.32s-.23,0-.27.12A.24.24,0,0,0,153,117.3Zm-3.35,3.45a2.31,2.31,0,0,0,.44,0c.2,0,.3-.15.3-.32a.58.58,0,0,0-.4-.13q-.67,0-.87.24A.54.54,0,0,0,149.61,120.75Z"/><path class="cls-1" d="M222.63,90.92a1.13,1.13,0,0,0,.3,0,2.05,2.05,0,0,1,.37,0l.63,0L225,91a7.56,7.56,0,0,1,1.13.21,3,3,0,0,1,.87.35,1.13,1.13,0,0,1,.71.24,1.23,1.23,0,0,0,.83.25h.34a2.84,2.84,0,0,1,1.84.64,2.66,2.66,0,0,0,1.77.64.78.78,0,0,1,.7.36,1.35,1.35,0,0,0,.57.5,2.59,2.59,0,0,0,1,.65,2.19,2.19,0,0,1,1,.72l1,.72a4.19,4.19,0,0,1,.83.79,2.2,2.2,0,0,1,.84.48,5.18,5.18,0,0,1,.67.73,7.38,7.38,0,0,0,.63.72,3.15,3.15,0,0,0,.81.56,9.47,9.47,0,0,1,1.17,1.82,4.42,4.42,0,0,0,1.44,1.69,3.26,3.26,0,0,1,.33,1.1,1.68,1.68,0,0,0,.4,1c.31.49.64,1,1,1.44a3.39,3.39,0,0,1,.57,1.73,6.63,6.63,0,0,0,.4,1.29,3.88,3.88,0,0,0,.67,1.08v.29a3.08,3.08,0,0,0,.27,1.36,3.27,3.27,0,0,1,.26,1.36,2.59,2.59,0,0,1-.06.65,1.52,1.52,0,0,1,.26,1,3.11,3.11,0,0,1,0,.43,2.87,2.87,0,0,0,0,.36,1.57,1.57,0,0,0,.2.89,1.65,1.65,0,0,1,.2.89,5.27,5.27,0,0,1-.07.87,4.39,4.39,0,0,0-.07.72,4.63,4.63,0,0,0,.07.74,4.51,4.51,0,0,1,.07.73,1.1,1.1,0,0,1-.27.79c0,.58-.09,1.13-.13,1.66s-.11,1.07-.2,1.59a.81.81,0,0,0-.34.78c0,.1,0,.16,0,.18a.21.21,0,0,1,0,.12,1,1,0,0,1,0,.25.45.45,0,0,0,0,.18v.29a1.71,1.71,0,0,1-.46,1.31,1.57,1.57,0,0,0-.47,1.23,1.31,1.31,0,0,0,.07.52,2,2,0,0,0-.5.79,6.48,6.48,0,0,0-.3,1,15.38,15.38,0,0,0-1.3,2.17,12.4,12.4,0,0,1-1.5,2.28.86.86,0,0,1-.31.65c-.19.2-.42.41-.66.62s-.5.46-.77.72a3,3,0,0,0-.6.8,10,10,0,0,1-1.6,1.34,10.92,10.92,0,0,1-1.23.7,11.15,11.15,0,0,0-1,.53,3.06,3.06,0,0,0-.86.8,3.66,3.66,0,0,1-1.87.94,6.77,6.77,0,0,0-2.13.84,1.57,1.57,0,0,0-1,.17,1.72,1.72,0,0,1-1,.26,2.62,2.62,0,0,0-2.06.48c-.09.09-.16.13-.2.12a.29.29,0,0,1-.2-.09.34.34,0,0,0-.21-.09.23.23,0,0,0-.19,0,1.08,1.08,0,0,1-.54.12l-.67,0a3.31,3.31,0,0,0-.63,0,.41.41,0,0,0-.37.31h-.73a9.85,9.85,0,0,1-1.44-.25,10.94,10.94,0,0,0-1.43-.24l-.4,0-.07.13a2.92,2.92,0,0,1-.73,0,5.15,5.15,0,0,1-1.94-.53,8,8,0,0,0-2.07-.67c-1.25-.57-2.58-1.13-4-1.68a21,21,0,0,1-3.58-1.75,10.61,10.61,0,0,1-1.41-1.22,7.43,7.43,0,0,0-1.4-1.15,3,3,0,0,0-1.11-.75,1.79,1.79,0,0,1-1-1,6.42,6.42,0,0,1-1-1,4.55,4.55,0,0,0-1-.93l-1.07-1.64c-.36-.53-.7-1.05-1-1.56a1.21,1.21,0,0,1-.47-.6l-.27-.74a4.69,4.69,0,0,0-.33-.72,1.18,1.18,0,0,0-.6-.5.7.7,0,0,0-.17-.34c-.07-.05-.1-.16-.1-.34v-.2a1.48,1.48,0,0,0-.41-1.12,1.45,1.45,0,0,1-.4-1.11v-.2a6,6,0,0,1-.61-1.43,15,15,0,0,1-.33-1.67,2.42,2.42,0,0,1-.51-1.71,10.86,10.86,0,0,0-.1-2v-.47a8.62,8.62,0,0,0-.07-1,6.94,6.94,0,0,1-.07-1,9,9,0,0,1,.3-2.41,9.62,9.62,0,0,0,.29-2.55,10.37,10.37,0,0,1,.84-2.4,14.59,14.59,0,0,0,.89-2.27,4,4,0,0,1,.64-1.32,11.55,11.55,0,0,0,.83-1.32,8.62,8.62,0,0,0,.33-.93,1.26,1.26,0,0,1,.54-.72c.58-.61,1.13-1.26,1.67-2a21.55,21.55,0,0,1,1.87-2.09,2.38,2.38,0,0,0,.7-.36c.37-.24.57-.45.57-.63a15.94,15.94,0,0,0,1.77-1.4,3.64,3.64,0,0,1,1.9-1,1.56,1.56,0,0,0,1-.67,1.45,1.45,0,0,1,1.11-.61,3.22,3.22,0,0,0,1.07-.33,7.21,7.21,0,0,0,1-.61,4.48,4.48,0,0,0,1.24-.17c.37-.11.73-.24,1.07-.37s.68-.26,1-.38a4.11,4.11,0,0,1,1.21-.17h.46a2.93,2.93,0,0,1,1.34-.34,7.35,7.35,0,0,1,1.67.14,6.53,6.53,0,0,0,1.41.14A5.61,5.61,0,0,0,222.63,90.92Zm-24.45,20.73q0-.2-.33-.21c-.09,0-.14,0-.14.13a.28.28,0,0,0,.07.2h.27C198.14,111.78,198.18,111.74,198.18,111.65Zm5.76,2.8c-.09-.14-.29-.21-.6-.22s-.54.14-.54.45a.19.19,0,0,0,.2.21.49.49,0,0,0,.2,0,.53.53,0,0,1,.2,0h.14a.38.38,0,0,1,.27-.13c.08,0,.13,0,.13-.13Zm.14,2.63c-.05-.14-.17-.19-.37-.15a.6.6,0,0,1-.5-.09.49.49,0,0,1-.17.2.21.21,0,0,0-.1.19c0,.09,0,.14.13.14h.27A.75.75,0,0,0,204.08,117.08Zm.21,7.27a.3.3,0,0,0-.13-.27,1,1,0,0,1-.27-.22.13.13,0,0,0-.1,0,.15.15,0,0,1-.1,0,.85.85,0,0,1-.24,0,.73.73,0,0,0-.23,0c-.18,0-.27,0-.27.19s.06.32.17.31.19,0,.23.18h.2l.41,0C204.18,124.55,204.29,124.49,204.29,124.35Zm-.4,2.6a.26.26,0,0,1,0-.2s0-.07-.1-.07h-.07c-.09,0-.13,0-.13-.07a1,1,0,0,1-.34.08.21.21,0,0,0-.2.23,2.11,2.11,0,0,1,.27.18.6.6,0,0,0,.34.12.22.22,0,0,0,.13-.06c.13-.13.2-.17.2-.13S203.94,127,203.89,127Zm3.35.87a.56.56,0,0,0-.4-.16.84.84,0,0,0-.67.23.33.33,0,0,1,.13,0,.48.48,0,0,0,.2,0A1.44,1.44,0,0,0,207.24,127.82Zm1.09-24.72a3.26,3.26,0,0,0-.4-.24,1,1,0,0,0-.47-.11c-.09,0-.14,0-.16,0a.32.32,0,0,1-.17,0c0,.23.09.34.27.34h.47A.92.92,0,0,0,208.33,103.1Zm0-2.7c0-.14-.11-.21-.34-.21s-.2,0-.2.13a.21.21,0,0,0,.14.2A.53.53,0,0,0,208.33,100.4Zm1.15,5.85a.62.62,0,0,0-.17-.21,2,2,0,0,1-.24-.21c-.31,0-.46.08-.46.26s0,.22.13.24a.61.61,0,0,1,.27.18h.33c.14,0,.2,0,.2-.06a.15.15,0,0,0,0-.1A.15.15,0,0,1,209.48,106.25Zm11.76-2a1.61,1.61,0,0,1-.53,0,3,3,0,0,1-1-.19,2.59,2.59,0,0,0-.93-.2,6.28,6.28,0,0,0-1.27.28,10.72,10.72,0,0,0-1.67.61,3,3,0,0,1-1.21.93,11,11,0,0,1-1.23,1.3c-.43.38-.84.78-1.24,1.2a11.21,11.21,0,0,0-1.13,1.39,7.72,7.72,0,0,0-.93,1.84,21.42,21.42,0,0,1-.64,2.11,6.71,6.71,0,0,0-.36,2.19,1.52,1.52,0,0,0,.13.72,1.18,1.18,0,0,1,.14.58,1.91,1.91,0,0,1-.1.64,2,2,0,0,0-.1.64c.05.59.09,1.15.14,1.67a12.73,12.73,0,0,0,.2,1.47,7.17,7.17,0,0,0,.4.93,2.06,2.06,0,0,1,.21.93,1.26,1.26,0,0,1,0,.27,1.24,1.24,0,0,0,0,.27.78.78,0,0,1,.5.5c.07.23.12.46.17.69a3,3,0,0,0,.2.66.75.75,0,0,0,.6.41,2,2,0,0,0,.84,1,2,2,0,0,1,.84.9,3.47,3.47,0,0,0,1.47,1.63,12.9,12.9,0,0,0,2.21,1.08A24.21,24.21,0,0,0,220,132c.64.16.94.26.9.31a5.88,5.88,0,0,0,.67-.09,2.32,2.32,0,0,1,1.43-.55l1.77-.11a11.38,11.38,0,0,1,1.84-.84,3.15,3.15,0,0,0,1.56-1.21,1.66,1.66,0,0,1,1.2-1,2.65,2.65,0,0,1,.47-.67,7,7,0,0,0,.6-.66l.07.08s.07,0,.07-.14v-.07a10.51,10.51,0,0,0,.7-.87,3.47,3.47,0,0,0,.63-1.22,1.82,1.82,0,0,1,.3-1.15,1.64,1.64,0,0,0,.3-1.07v-.43a1.06,1.06,0,0,1,.3-.79,1.09,1.09,0,0,0,.3-.8,4.69,4.69,0,0,0-.14-1,5.19,5.19,0,0,1-.13-1.11,1.81,1.81,0,0,1,.1-.63,1.74,1.74,0,0,0,.1-.63,11.5,11.5,0,0,0-.47-3,11,11,0,0,0-1.14-2.77,4.72,4.72,0,0,0-.94-1.8,4.74,4.74,0,0,1-.94-1.79,2.75,2.75,0,0,0-1.67-1.11,1.81,1.81,0,0,0-.47-.64,3.3,3.3,0,0,0-.6-.4,4.47,4.47,0,0,1-.6-.4,1.81,1.81,0,0,1-.47-.64,6.49,6.49,0,0,1-1.37-.46,3.81,3.81,0,0,0-1.5-.31A4,4,0,0,0,221.24,104.28Zm-6.76-4.88a.67.67,0,0,0-.6-.28,1.25,1.25,0,0,0-.47.09c-.18.07-.27.17-.27.31s.14.24.4.31l.67.18.2-.2a.38.38,0,0,0,.07-.27Zm1.26,38.94a.17.17,0,0,1-.17-.11.16.16,0,0,0-.16-.12c0,.09,0,.14-.07.13s-.07,0-.07.14v.06h.07l.27,0C215.7,138.48,215.74,138.44,215.74,138.34Zm2.82-38.74a.39.39,0,0,0-.34-.42,2.76,2.76,0,0,0-.6-.08c-.27,0-.4.09-.4.27s.29.35.87.36A.66.66,0,0,0,218.56,99.6Zm5.62-.19c-.05-.14-.18-.21-.4-.22a1.74,1.74,0,0,0-.67.13c-.23.09-.34.18-.34.27s.14.21.4.22A1.32,1.32,0,0,0,224.18,99.41Zm2,39.77a.26.26,0,0,0-.2-.08l-.14,0a.24.24,0,0,1-.2-.09c0,.1,0,.15-.06.17s-.07.08-.07.17h.13l.27,0A.25.25,0,0,0,226.23,139.18Zm1.89-39.29a.45.45,0,0,0-.3-.46,1.9,1.9,0,0,0-.63-.11.66.66,0,0,0-.27.06c-.09.05-.14.16-.13.35a.76.76,0,0,0,.26.49,1.24,1.24,0,0,0,.57-.09Zm4.11,37.53a.29.29,0,0,0-.2-.09l-.26,0a.27.27,0,0,0,.26.31C232.17,137.62,232.23,137.56,232.23,137.42Zm.31-30.52v-.07c0-.14,0-.21-.13-.22h-.27a.41.41,0,0,1-.13.18s-.07.08-.07.17,0,.07.07.07a.31.31,0,0,0,.23-.06A.61.61,0,0,1,232.54,106.9Zm.66-6.28c0-.09-.09-.14-.26-.15l-.14.14a.24.24,0,0,0,.14.22c.09,0,.13.09.13.14.27,0,.4-.06.4-.2v-.15s-.07,0-.07,0,0,0-.06,0-.07,0-.07,0S233.25,100.62,233.2,100.62Zm1.08,2.93v-.14c0-.1-.05-.15-.14-.15a2.44,2.44,0,0,0-.7.13c-.29.09-.43.18-.43.27s0,.14.13.14h.2a1.16,1.16,0,0,0,.47-.09A1.84,1.84,0,0,1,234.28,103.55Zm.95,26.33c0-.15-.11-.2-.2-.16s-.13,0-.13-.15h-.14l-.33,0c-.13,0-.2,0-.2.13a1,1,0,0,0,.67.26.26.26,0,0,0,.17,0S235.14,129.87,235.23,129.88Zm3.2-3.54c0-.24-.22-.37-.53-.39a1.46,1.46,0,0,0-.6.06.36.36,0,0,0-.27.37c0,.14.14.23.4.25A1.52,1.52,0,0,0,238.43,126.34Zm-.4-7.68a.94.94,0,0,0-.4-.09c-.23,0-.36,0-.4.05.09.24.23.36.43.34a1.54,1.54,0,0,1,.57.07v-.21c0-.1,0-.15-.14-.15Zm.34,10.4a.2.2,0,0,0-.2-.23,1.93,1.93,0,0,0-.5.06c-.25.06-.37.13-.37.22a.34.34,0,0,0,.33.39l.27,0H238a1.8,1.8,0,0,1,.24-.2.21.21,0,0,0,.1-.2Zm.06-13.09a.57.57,0,0,0-.37-.24,1.83,1.83,0,0,0-.5-.09c-.14,0-.2.08-.2.27.13.34.33.52.6.53a1.06,1.06,0,0,0,.3,0c.11,0,.17-.12.17-.31Zm5.34-2.54c0-.19-.06-.25-.17-.16s-.25.07-.43-.09a.91.91,0,0,0-.13.5h.13A.78.78,0,0,0,243.77,113.43Z"/></svg>